<svg width="39" height="39" viewBox="0 0 39 39" fill="none" xmlns="http://www.w3.org/2000/svg">
<path d="M13.4062 3.25C10.6224 3.25 8.34171 5.40381 8.13953 8.13592C8.26915 8.12867 8.39975 8.125 8.5312 8.125H23.9687C27.7829 8.125 30.875 11.217 30.875 15.0313V25.5938C30.875 25.7252 30.8712 25.8559 30.8641 25.9854C33.5962 25.7832 35.75 23.5025 35.75 20.7188V10.9688C35.75 6.70581 32.2942 3.25 28.0312 3.25H13.4062Z" fill="#E5C687"/>
<path d="M29.2346 26C29.0272 28.7269 26.7488 30.875 23.9688 30.875H17.3334L11.375 35.3438C10.0359 36.348 8.125 35.3927 8.125 33.7188V30.8596C5.39807 30.6522 3.25 28.3738 3.25 25.5938V15.0313C3.25 12.2512 5.39807 9.97284 8.125 9.76539C8.25908 9.7552 8.39456 9.75 8.53125 9.75H23.9688C26.8855 9.75 29.25 12.1145 29.25 15.0313V25.5938C29.25 25.7304 29.2448 25.8659 29.2346 26Z" fill="#E5C687"/>
</svg>
