<svg width="57" height="57" viewBox="0 0 57 57" fill="none" xmlns="http://www.w3.org/2000/svg">
<g clip-path="url(#clip0_52_2100)">
<path d="M37.4042 56.9464C38.2381 56.9464 38.9102 56.2685 38.9102 55.4404V52.4524C35.6101 53.6344 32.0941 54.2584 28.5 54.2584C24.906 54.2584 21.3839 53.6404 18.0898 52.4524V55.4404C18.0898 56.2744 18.7679 56.9464 19.5959 56.9464H37.4042Z" fill="#0B814A"/>
<path d="M52.9384 6.91754C50.5023 5.10551 47.0583 5.60952 45.2402 8.04556L34.4041 22.6078H48.1203L54.0664 14.6157C55.8784 12.1797 55.3745 8.73563 52.9384 6.91754Z" fill="#0B814A"/>
<path d="M18.6178 50.9703C21.6959 52.0803 25.0259 52.6803 28.5 52.6803C31.9741 52.6803 35.3041 52.0803 38.3822 50.9703C48.5163 47.3283 55.9564 38.2082 56.9885 27.054C57.1325 25.512 55.9084 24.1799 54.3604 24.1799H46.9443H33.2341H2.63957C1.09154 24.1799 -0.132477 25.512 0.0115256 27.054C1.04354 38.2082 8.48366 47.3283 18.6178 50.9703Z" fill="#0B814A"/>
<path d="M9.34177 14.3937L11.4178 9.34163L16.7459 7.00753L11.3758 4.96155L9.34177 0.0534668L7.30173 4.96155L1.93164 7.00753L7.25973 9.34163L9.34177 14.3937Z" fill="#0B814A"/>
</g>
<defs>
<clipPath id="clip0_52_2100">
<rect width="57" height="57" fill="white"/>
</clipPath>
</defs>
</svg>
