<svg width="300" height="72" viewBox="0 0 300 72" fill="none" xmlns="http://www.w3.org/2000/svg">
<path d="M11.184 46.664H21.936V53H2.976V19.304H11.184V46.664ZM51.099 39.176C51.099 39.944 51.051 40.744 50.955 41.576H32.379C32.507 43.24 33.035 44.52 33.963 45.416C34.923 46.28 36.091 46.712 37.467 46.712C39.515 46.712 40.939 45.848 41.739 44.12H50.475C50.027 45.88 49.211 47.464 48.027 48.872C46.875 50.28 45.419 51.384 43.659 52.184C41.899 52.984 39.931 53.384 37.755 53.384C35.131 53.384 32.795 52.824 30.747 51.704C28.699 50.584 27.099 48.984 25.947 46.904C24.795 44.824 24.219 42.392 24.219 39.608C24.219 36.824 24.779 34.392 25.899 32.312C27.051 30.232 28.651 28.632 30.699 27.512C32.747 26.392 35.099 25.832 37.755 25.832C40.347 25.832 42.651 26.376 44.667 27.464C46.683 28.552 48.251 30.104 49.371 32.12C50.523 34.136 51.099 36.488 51.099 39.176ZM42.699 37.016C42.699 35.608 42.219 34.488 41.259 33.656C40.299 32.824 39.099 32.408 37.659 32.408C36.283 32.408 35.115 32.808 34.155 33.608C33.227 34.408 32.651 35.544 32.427 37.016H42.699ZM70.3571 46.04V53H66.1811C63.2051 53 60.8851 52.28 59.2211 50.84C57.5571 49.368 56.7251 46.984 56.7251 43.688V33.032H53.4611V26.216H56.7251V19.688H64.9331V26.216H70.3091V33.032H64.9331V43.784C64.9331 44.584 65.1251 45.16 65.5091 45.512C65.8931 45.864 66.5331 46.04 67.4291 46.04H70.3571ZM85.8251 53.384C83.4891 53.384 81.4091 52.984 79.5851 52.184C77.7611 51.384 76.3211 50.296 75.2651 48.92C74.2091 47.512 73.6171 45.944 73.4891 44.216H81.6011C81.6971 45.144 82.1291 45.896 82.8971 46.472C83.6651 47.048 84.6091 47.336 85.7291 47.336C86.7531 47.336 87.5371 47.144 88.0811 46.76C88.6571 46.344 88.9451 45.816 88.9451 45.176C88.9451 44.408 88.5451 43.848 87.7451 43.496C86.9451 43.112 85.6491 42.696 83.8571 42.248C81.9371 41.8 80.3371 41.336 79.0571 40.856C77.7771 40.344 76.6731 39.56 75.7451 38.504C74.8171 37.416 74.3531 35.96 74.3531 34.136C74.3531 32.6 74.7691 31.208 75.6011 29.96C76.4651 28.68 77.7131 27.672 79.3451 26.936C81.0091 26.2 82.9771 25.832 85.2491 25.832C88.6091 25.832 91.2491 26.664 93.1691 28.328C95.1211 29.992 96.2411 32.2 96.5291 34.952H88.9451C88.8171 34.024 88.4011 33.288 87.6971 32.744C87.0251 32.2 86.1291 31.928 85.0091 31.928C84.0491 31.928 83.3131 32.12 82.8011 32.504C82.2891 32.856 82.0331 33.352 82.0331 33.992C82.0331 34.76 82.4331 35.336 83.2331 35.72C84.0651 36.104 85.3451 36.488 87.0731 36.872C89.0571 37.384 90.6731 37.896 91.9211 38.408C93.1691 38.888 94.2571 39.688 95.1851 40.808C96.1451 41.896 96.6411 43.368 96.6731 45.224C96.6731 46.792 96.2251 48.2 95.3291 49.448C94.4651 50.664 93.2011 51.624 91.5371 52.328C89.9051 53.032 88.0011 53.384 85.8251 53.384Z" fill="#2E4739"/>
<path d="M110.475 36.104C110.475 32.776 111.195 29.816 112.635 27.224C114.075 24.6 116.075 22.568 118.635 21.128C121.227 19.656 124.155 18.92 127.419 18.92C131.419 18.92 134.843 19.976 137.691 22.088C140.539 24.2 142.443 27.08 143.403 30.728H134.379C133.707 29.32 132.747 28.248 131.499 27.512C130.283 26.776 128.891 26.408 127.323 26.408C124.795 26.408 122.747 27.288 121.179 29.048C119.611 30.808 118.827 33.16 118.827 36.104C118.827 39.048 119.611 41.4 121.179 43.16C122.747 44.92 124.795 45.8 127.323 45.8C128.891 45.8 130.283 45.432 131.499 44.696C132.747 43.96 133.707 42.888 134.379 41.48H143.403C142.443 45.128 140.539 48.008 137.691 50.12C134.843 52.2 131.419 53.24 127.419 53.24C124.155 53.24 121.227 52.52 118.635 51.08C116.075 49.608 114.075 47.576 112.635 44.984C111.195 42.392 110.475 39.432 110.475 36.104ZM160.621 53.384C157.997 53.384 155.629 52.824 153.517 51.704C151.437 50.584 149.789 48.984 148.573 46.904C147.389 44.824 146.797 42.392 146.797 39.608C146.797 36.856 147.405 34.44 148.621 32.36C149.837 30.248 151.501 28.632 153.613 27.512C155.725 26.392 158.093 25.832 160.717 25.832C163.341 25.832 165.709 26.392 167.821 27.512C169.933 28.632 171.597 30.248 172.813 32.36C174.029 34.44 174.637 36.856 174.637 39.608C174.637 42.36 174.013 44.792 172.765 46.904C171.549 48.984 169.869 50.584 167.725 51.704C165.613 52.824 163.245 53.384 160.621 53.384ZM160.621 46.28C162.189 46.28 163.517 45.704 164.605 44.552C165.725 43.4 166.285 41.752 166.285 39.608C166.285 37.464 165.741 35.816 164.653 34.664C163.597 33.512 162.285 32.936 160.717 32.936C159.117 32.936 157.789 33.512 156.733 34.664C155.677 35.784 155.149 37.432 155.149 39.608C155.149 41.752 155.661 43.4 156.685 44.552C157.741 45.704 159.053 46.28 160.621 46.28ZM191.184 53.384C188.56 53.384 186.192 52.824 184.08 51.704C182 50.584 180.352 48.984 179.136 46.904C177.952 44.824 177.36 42.392 177.36 39.608C177.36 36.856 177.968 34.44 179.184 32.36C180.4 30.248 182.064 28.632 184.176 27.512C186.288 26.392 188.656 25.832 191.28 25.832C193.904 25.832 196.272 26.392 198.384 27.512C200.496 28.632 202.16 30.248 203.376 32.36C204.592 34.44 205.2 36.856 205.2 39.608C205.2 42.36 204.576 44.792 203.328 46.904C202.112 48.984 200.432 50.584 198.288 51.704C196.176 52.824 193.808 53.384 191.184 53.384ZM191.184 46.28C192.752 46.28 194.08 45.704 195.168 44.552C196.288 43.4 196.848 41.752 196.848 39.608C196.848 37.464 196.304 35.816 195.216 34.664C194.16 33.512 192.848 32.936 191.28 32.936C189.68 32.936 188.352 33.512 187.296 34.664C186.24 35.784 185.712 37.432 185.712 39.608C185.712 41.752 186.224 43.4 187.248 44.552C188.304 45.704 189.616 46.28 191.184 46.28ZM225.922 53L217.762 41.768V53H209.554V17.48H217.762V37.112L225.874 26.216H236.002L224.866 39.656L236.098 53H225.922Z" fill="#E5C687"/>
<mask id="mask0_70_3" style="mask-type:alpha" maskUnits="userSpaceOnUse" x="264" y="18" width="23" height="37">
<rect width="15.4313" height="36.693" rx="7.71567" transform="matrix(0.912272 -0.409584 0.361786 0.932261 261.789 22.3204)" fill="#E5C687"/>
</mask>
<g mask="url(#mask0_70_3)">
<rect x="263.925" y="18.4319" width="24.8241" height="37.3259" fill="#E5C687"/>
</g>
<mask id="mask1_70_3" style="mask-type:alpha" maskUnits="userSpaceOnUse" x="284" y="19" width="15" height="22">
<rect width="10.2442" height="21.4096" rx="5.12211" transform="matrix(0.912272 -0.409584 0.361786 0.932261 282.637 22.1094)" fill="#2E4739"/>
</mask>
<g mask="url(#mask1_70_3)">
<rect x="283.664" y="15.9795" width="16.0908" height="24.1662" fill="#2E4739"/>
</g>
<mask id="mask2_70_3" style="mask-type:alpha" maskUnits="userSpaceOnUse" x="253" y="34" width="15" height="22">
<rect width="10.2442" height="21.4096" rx="5.12211" transform="matrix(0.912272 -0.409584 0.361786 0.932261 252 36.757)" fill="#2E4739"/>
</mask>
<g mask="url(#mask2_70_3)">
<rect x="252.32" y="31.1132" width="17.4666" height="26.1999" fill="#2E4739"/>
</g>
</svg>
