<svg width="57" height="57" viewBox="0 0 57 57" fill="none" xmlns="http://www.w3.org/2000/svg">
<path d="M47.7376 29.9094C47.479 29.6133 47.2597 29.2903 47.0789 28.9493C46.99 38.1155 39.5069 45.5457 30.32 45.5457C21.078 45.5457 13.559 38.0266 13.559 28.7846C13.559 19.5427 21.078 12.0236 30.32 12.0236C38.2705 12.0236 44.9456 17.5883 46.656 25.027L48.1738 13.7435L48.208 13.4898C43.886 8.44221 37.4706 5.23755 30.32 5.23755C24.7413 5.23755 19.6103 7.1889 15.5714 10.4433V10.6869V10.9027V15.6819V15.8716C15.5714 19.0639 13.9169 21.9784 11.2988 23.6438V42.3252V42.6471C15.5855 48.513 22.5146 52.3314 30.32 52.3314C38.5219 52.3314 45.7567 48.1151 49.974 41.7371V41.3921V31.3858C49.1184 31.1074 48.343 30.6017 47.7376 29.9094Z" fill="#0B814A"/>
<path d="M30.3198 14.8721C22.6485 14.8721 16.4072 21.1131 16.4072 28.7847C16.4072 36.4562 22.6483 42.6973 30.3198 42.6973C37.9914 42.6973 44.2324 36.4562 44.2324 28.7847C44.2324 21.1131 37.9912 14.8721 30.3198 14.8721Z" fill="#0B814A"/>
<path d="M56.9365 2.74894C56.9365 1.53666 55.9538 0.553955 54.7415 0.553955C53.6424 0.553955 52.7127 1.36689 52.5663 2.45632L49.359 26.2974C49.2745 26.925 49.4653 27.5583 49.882 28.0349C50.2988 28.5115 50.9009 28.7848 51.5342 28.7848H52.8221V54.3573C52.8221 55.5109 53.7573 56.4461 54.9109 56.4461C56.0645 56.4461 56.9998 55.5109 56.9998 54.3573L56.9365 2.74894Z" fill="#0B814A"/>
<path d="M12.7229 3.21254C12.7229 2.42581 12.0854 1.78833 11.2987 1.78833C10.512 1.78833 9.8745 2.42581 9.8745 3.21254V11.093H7.78567V3.21254C7.78567 2.42581 7.14819 1.78833 6.36146 1.78833C5.57473 1.78833 4.93725 2.42581 4.93725 3.21254V11.093H2.84841V3.21254C2.84841 2.42581 2.21094 1.78833 1.42421 1.78833C0.637475 1.78833 0 2.42581 0 3.21254V16.0619C0 18.838 1.78823 21.2029 4.27262 22.0694V54.3573C4.27262 55.511 5.20785 56.4462 6.36146 56.4462C7.51507 56.4462 8.4503 55.511 8.4503 54.3573V22.0694C10.9347 21.2029 12.7229 18.838 12.7229 16.0619V3.21254Z" fill="#0B814A"/>
</svg>
