<svg width="57" height="57" viewBox="0 0 57 57" fill="none" xmlns="http://www.w3.org/2000/svg">
<g clip-path="url(#clip0_52_2081)">
<path d="M5.36897 16.1147C5.85812 16.3593 7.24404 17.093 8.75808 15.3927C9.36369 14.5425 9.96931 13.6923 10.6914 12.8537C11.5416 11.8871 11.4135 10.3148 10.4468 9.46461C9.48016 8.61442 7.90789 8.74254 7.0577 9.70919C6.20751 10.6758 5.35732 11.7706 4.63524 12.8537C3.92481 13.9368 4.28585 15.381 5.36897 16.1147Z" fill="#0B814A"/>
<path d="M28.9997 4.72462C31.3057 4.72462 33.6 5.08566 35.7895 5.81938C37.257 6.2503 38.3285 5.33023 38.8176 4.36358C39.1786 3.03589 38.4566 1.69655 37.2453 1.33551C34.5783 0.485316 31.9113 0.0078125 29.1278 0.0078125C27.8001 0.0078125 26.7053 0.974467 26.7053 2.31381C26.7053 3.65315 27.672 4.72462 28.9997 4.72462Z" fill="#0B814A"/>
<path d="M50.5688 19.5041C51.419 21.5655 51.8965 23.7434 52.1411 25.9212C52.1411 25.9212 52.2809 28.6232 54.8082 28.2272C57.3122 27.9011 56.986 25.4437 56.986 25.4437C56.7415 22.7767 56.0194 20.1097 55.0527 17.6872C54.4471 16.476 53.1194 15.8704 51.9082 16.3595C50.6853 16.9651 50.0797 18.2928 50.5688 19.5041Z" fill="#0B814A"/>
<path d="M41.8457 8.84736C43.779 10.1751 45.4794 11.759 46.9352 13.5758C48.0183 14.9268 49.8468 14.3678 50.2078 13.9369C51.1745 13.0867 51.419 11.5144 50.5689 10.5477C48.8685 8.48632 46.8071 6.55301 44.5127 4.96909C43.4179 4.24701 41.9738 4.47994 41.2401 5.57471C40.5063 6.66947 40.7509 8.11363 41.8457 8.84736Z" fill="#0B814A"/>
<path d="M15.6762 8.47472C17.6095 7.26349 19.799 6.29684 21.9769 5.69122C23.3046 5.33018 24.0383 3.99084 23.6773 2.77961C23.3162 1.45192 21.9769 0.718192 20.7657 1.07923C18.0986 1.80131 15.5597 2.89608 13.2537 4.35188C12.1589 5.07396 11.7979 6.52977 12.5316 7.62453C13.0091 8.35826 14.034 9.08034 15.6762 8.47472Z" fill="#0B814A"/>
<path d="M54.5636 31.2552C53.2359 30.8942 52.0247 31.7443 51.7801 33.072C51.5355 34.1668 50.7902 36.7174 50.7785 36.962C47.5757 45.2892 39.8891 51.1473 31.0611 52.0907C22.3729 52.9991 13.9175 49.0743 9.01439 42.0165L13.4983 43.0065C14.7095 43.251 16.0372 42.5173 16.2818 41.1896C16.5263 39.9784 15.7926 38.6507 14.4649 38.4061L5.01967 36.3447C4.41405 36.2282 2.52733 36.3447 2.10806 38.1615L0.0466376 47.7349C-0.197938 48.9461 0.535788 50.2738 1.86348 50.5184C3.34258 50.6698 4.40241 49.7963 4.77509 48.5851L5.49717 45.3008C10.8895 52.6031 20.6259 58.0071 31.5503 56.8308C42.5678 55.6428 51.9082 48.2241 55.5419 37.8121C55.6584 37.5093 56.2058 34.9704 56.3921 34.0503C56.7531 32.711 55.903 31.4998 54.5636 31.2552Z" fill="#0B814A"/>
<path d="M19.17 30.8942H30.339C31.6666 30.8942 32.6449 29.7994 32.7614 28.4717V11.9105C32.7614 10.5828 31.6666 9.48804 30.339 9.48804C29.0113 9.48804 27.9165 10.5828 27.9165 11.9105V26.0493H19.17C17.8423 26.0493 16.7476 27.144 16.7476 28.4717C16.7476 29.7994 17.8307 30.8942 19.17 30.8942Z" fill="#0B814A"/>
</g>
<defs>
<clipPath id="clip0_52_2081">
<rect width="57" height="57" fill="white"/>
</clipPath>
</defs>
</svg>
