<svg width="60" height="60" viewBox="0 0 60 60" fill="none" xmlns="http://www.w3.org/2000/svg">
<path d="M30 0C13.4026 0 0 13.4438 0 30C0 46.5753 13.4273 60 30 60C46.6472 60 60 46.5118 60 30C60 13.4048 46.5463 0 30 0ZM45.438 47.6693C41.1617 51.4167 35.7386 53.4641 30 53.4641C24.2625 53.4641 18.8403 51.4174 14.5643 47.6714C13.9859 47.1647 13.7244 46.3859 13.8787 45.6326C15.3558 38.4175 19.9515 32.7273 25.8014 30.8552C22.7488 29.0481 20.6536 25.3356 20.6536 21.0458C20.6536 14.9814 24.8382 10.0654 30 10.0654C35.1618 10.0654 39.3464 14.9814 39.3464 21.0458C39.3464 25.3349 37.2519 29.0469 34.2001 30.8543C40.0499 32.726 44.6458 38.4161 46.1234 45.6305C46.2775 46.3827 46.0156 47.1631 45.438 47.6693Z" fill="#B6D5D5"/>
</svg>
